# xmcd CD database file
#
# Track frame offsets:
#	150
#	18678
#	55883
#	70361
#	97696
#	115648
#	129824
#	144482
#	155697
#	170923
#	199062
#	224866
#
# Disc length: 3091 seconds
#
# Revision: 5
# Processed by: cddbd v1.5.2PL0 Copyright (c) Steve Scherf et al.
# Submitted via: CDex 1.79
#
DISCID=b10c110c
DTITLE=Lou Dalfin - La Flor De Lo Dalfin
DYEAR=2001
DGENRE=Folk
TTITLE0=La Festa - Na Lama
TTITLE1=Seguida 1 - Lo Camel/Bandits/Cicle/Attesa
TTITLE2=Seguida 2 - Polka Correzienne/John Ryan's Polka
TTITLE3=Seguida 3 - Jan Jan Jan
TTITLE4=Lo Viatge
TTITLE5=Calant De Villafranca
TTITLE6=Mesuanuech Al Bal (Midnight On The Water)
TTITLE7=Famous Wolf
TTITLE8=Seguida 4 - La Vacha Malha/Corenta de Val d'Ermenanha
TTITLE9=Seguida 5 -  La Sanzan/Mont Sara'/Avant De S'Enaller
TTITLE10=Bel Jovenet
TTITLE11=Se Chanta
EXTD=YEAR: 2001
EXTT0=
EXTT1=
EXTT2=
EXTT3=
EXTT4=
EXTT5=
EXTT6=
EXTT7=
EXTT8=
EXTT9=
EXTT10=
EXTT11=
PLAYORDER=
